<svg id="Layer_1" data-name="Layer 1" xmlns="http://www.w3.org/2000/svg" viewBox="0 0 280 300"><defs><style>.cls-1{fill:#ed2d26;}</style></defs><title>formula 1 logo</title><path class="cls-1" d="M63.24,169.06H85l19.21-18.3A16.78,16.78,0,0,1,116,145.47h59l14.77-14.61h-73.6s-12.69-.53-20.35,6.45S63.24,169.06,63.24,169.06Z"/><path class="cls-1" d="M88.85,169.06H109l5.59-5.52a10.76,10.76,0,0,1,7-2.73h38L173,147.42H118.88s-7.19-.3-11.53,3.65S88.85,169.06,88.85,169.06Z"/><polygon class="cls-1" points="178.65 169.03 154.88 169.03 192.98 130.82 216.75 130.82 178.65 169.03"/><path class="cls-1" d="M189.89,169.18v-3.86h-1.44v-.79h3.86v.79h-1.44v3.86Z"/><path class="cls-1" d="M192.93,169.18v-4.65h1.47l.88,3.17.88-3.17h1.47v4.65h-.91v-3.66l-1,3.66h-.94l-1-3.66v3.66Z"/></svg>