<svg width="227" height="48" viewBox="0 0 227 48" fill="none" xmlns="http://www.w3.org/2000/svg">
<g clip-path="url(#clip0_132_45)">
<path d="M0 40L22.919 16.9209C31.215 8.5669 35.7053 6.99084 51.3264 6.99084H107.436L96.0456 18.2267H53.7631C42.2433 18.2267 39.2879 19.1377 33.6034 24.8164L18.4588 40H0Z" fill="#E10500"/>
<path d="M54.897 21.3698C43.3772 21.3698 41.1516 21.8981 35.9587 27.1395L23.2598 40.0152H40.3646L44.4236 35.8397C46.8361 33.3344 47.8283 32.721 53.543 32.721H81.5131L92.9033 21.3849L54.897 21.3698Z" fill="#E10500"/>
<path d="M111.45 7L78.6785 40H98.0963L131 7H111.45Z" fill="#E10500"/>
<path d="M110.279 34.4974H114.7V35.3295H112.963V40H112.007V35.3295H110.279V34.4974Z" fill="#E10500"/>
<path d="M115.587 34.4974H116.932L118.44 38.8035H118.455L119.924 34.4974H121.253V40H120.343V35.7546H120.328L118.814 40H118.027L116.51 35.7546H116.495V40H115.587V34.4974Z" fill="#E10500"/>
</g>
<path d="M148.56 18.112C147.835 18.112 147.2 17.984 146.656 17.728C146.112 17.472 145.685 17.1253 145.376 16.688C145.077 16.2507 144.907 15.7653 144.864 15.232H145.616C145.701 15.8187 145.973 16.3413 146.432 16.8C146.901 17.2587 147.611 17.488 148.56 17.488C149.115 17.488 149.595 17.3867 150 17.184C150.416 16.9813 150.736 16.704 150.96 16.352C151.184 16 151.296 15.6107 151.296 15.184C151.296 14.64 151.163 14.208 150.896 13.888C150.64 13.568 150.315 13.328 149.92 13.168C149.536 13.008 149.013 12.8373 148.352 12.656C147.627 12.464 147.04 12.272 146.592 12.08C146.155 11.888 145.781 11.5947 145.472 11.2C145.173 10.7947 145.024 10.2453 145.024 9.552C145.024 9.01867 145.163 8.53333 145.44 8.096C145.728 7.648 146.133 7.296 146.656 7.04C147.179 6.784 147.781 6.656 148.464 6.656C149.456 6.656 150.256 6.90133 150.864 7.392C151.472 7.88267 151.835 8.48533 151.952 9.2H151.184C151.12 8.912 150.976 8.61867 150.752 8.32C150.539 8.02133 150.229 7.776 149.824 7.584C149.429 7.38133 148.955 7.28 148.4 7.28C147.653 7.28 147.024 7.488 146.512 7.904C146 8.30933 145.744 8.85333 145.744 9.536C145.744 10.08 145.877 10.5173 146.144 10.848C146.411 11.168 146.736 11.4133 147.12 11.584C147.515 11.744 148.043 11.9093 148.704 12.08C149.44 12.2827 150.021 12.48 150.448 12.672C150.885 12.8533 151.253 13.1467 151.552 13.552C151.861 13.9467 152.016 14.4853 152.016 15.168C152.016 15.6693 151.883 16.144 151.616 16.592C151.349 17.04 150.955 17.408 150.432 17.696C149.92 17.9733 149.296 18.112 148.56 18.112ZM160.379 6.768V7.376H157.179V18H156.459V7.376H153.259V6.768H160.379ZM168.157 18L165.277 13.216H165.213H162.813V18H162.093V6.768H165.181C166.429 6.768 167.363 7.06133 167.981 7.648C168.611 8.23467 168.925 9.01333 168.925 9.984C168.925 10.848 168.68 11.5627 168.189 12.128C167.709 12.6827 167.005 13.024 166.077 13.152L169.021 18H168.157ZM162.813 12.608H165.213C166.205 12.608 166.947 12.368 167.437 11.888C167.928 11.408 168.173 10.7733 168.173 9.984C168.173 8.26667 167.176 7.408 165.181 7.408H162.813V12.608ZM177.43 15.12H172.102L171.03 18H170.246L174.374 7.024H175.174L179.286 18H178.502L177.43 15.12ZM177.206 14.512L174.774 7.968L172.326 14.512H177.206ZM187.301 6.768V7.376H184.101V18H183.381V7.376H180.181V6.768H187.301ZM152.112 33.936C152.112 34.928 151.803 35.7013 151.184 36.256C150.565 36.8 149.648 37.072 148.432 37.072H146.032V42H145.312V30.768H148.432C149.669 30.768 150.592 31.056 151.2 31.632C151.808 32.1973 152.112 32.9653 152.112 33.936ZM148.432 36.432C150.405 36.432 151.392 35.6 151.392 33.936C151.392 33.1147 151.157 32.4907 150.688 32.064C150.219 31.6267 149.467 31.408 148.432 31.408H146.032V36.432H148.432ZM160.11 42L157.23 37.216H157.166H154.766V42H154.046V30.768H157.134C158.382 30.768 159.316 31.0613 159.934 31.648C160.564 32.2347 160.878 33.0133 160.878 33.984C160.878 34.848 160.633 35.5627 160.142 36.128C159.662 36.6827 158.958 37.024 158.03 37.152L160.974 42H160.11ZM154.766 36.608H157.166C158.158 36.608 158.9 36.368 159.39 35.888C159.881 35.408 160.126 34.7733 160.126 33.984C160.126 32.2667 159.129 31.408 157.134 31.408H154.766V36.608ZM163.735 31.376V36.064H168.215V36.672H163.735V41.392H168.695V42H163.015V30.768H168.695V31.376H163.735ZM174.027 30.768C175.925 30.768 177.387 31.264 178.411 32.256C179.445 33.248 179.963 34.6293 179.963 36.4C179.963 38.1707 179.445 39.5467 178.411 40.528C177.387 41.5093 175.925 42 174.027 42H170.875V30.768H174.027ZM174.027 41.392C175.723 41.392 177.013 40.9547 177.899 40.08C178.784 39.1947 179.227 37.968 179.227 36.4C179.227 34.8213 178.784 33.5893 177.899 32.704C177.013 31.8187 175.723 31.376 174.027 31.376H171.595V41.392H174.027ZM182.86 30.768V42H182.14V30.768H182.86ZM185.052 36.4C185.052 35.2907 185.281 34.304 185.74 33.44C186.209 32.5653 186.849 31.8827 187.66 31.392C188.481 30.9013 189.398 30.656 190.412 30.656C191.692 30.656 192.769 30.9547 193.644 31.552C194.518 32.1493 195.158 32.9867 195.564 34.064H194.732C194.412 33.2107 193.878 32.5387 193.132 32.048C192.396 31.5467 191.489 31.296 190.412 31.296C189.548 31.296 188.764 31.504 188.06 31.92C187.356 32.3253 186.801 32.9173 186.396 33.696C185.99 34.464 185.788 35.3653 185.788 36.4C185.788 37.424 185.99 38.32 186.396 39.088C186.801 39.8453 187.356 40.432 188.06 40.848C188.764 41.264 189.548 41.472 190.412 41.472C191.489 41.472 192.396 41.2267 193.132 40.736C193.878 40.2347 194.412 39.5573 194.732 38.704H195.564C195.158 39.7813 194.518 40.6187 193.644 41.216C192.769 41.8133 191.692 42.112 190.412 42.112C189.398 42.112 188.481 41.872 187.66 41.392C186.849 40.9013 186.209 40.224 185.74 39.36C185.281 38.4853 185.052 37.4987 185.052 36.4ZM204.02 30.768V31.376H200.82V42H200.1V31.376H196.9V30.768H204.02ZM210.742 42.128C209.707 42.128 208.774 41.888 207.942 41.408C207.11 40.9173 206.459 40.2347 205.99 39.36C205.521 38.4853 205.286 37.4987 205.286 36.4C205.286 35.2907 205.521 34.304 205.99 33.44C206.459 32.5653 207.11 31.888 207.942 31.408C208.774 30.9173 209.707 30.672 210.742 30.672C211.777 30.672 212.71 30.9173 213.542 31.408C214.374 31.888 215.025 32.5653 215.494 33.44C215.963 34.304 216.198 35.2907 216.198 36.4C216.198 37.4987 215.963 38.4853 215.494 39.36C215.025 40.2347 214.374 40.9173 213.542 41.408C212.71 41.888 211.777 42.128 210.742 42.128ZM210.742 41.488C211.627 41.488 212.427 41.28 213.142 40.864C213.857 40.448 214.417 39.856 214.822 39.088C215.238 38.32 215.446 37.424 215.446 36.4C215.446 35.3653 215.238 34.464 214.822 33.696C214.417 32.928 213.857 32.336 213.142 31.92C212.427 31.504 211.627 31.296 210.742 31.296C209.857 31.296 209.057 31.504 208.342 31.92C207.627 32.336 207.062 32.928 206.646 33.696C206.23 34.464 206.022 35.3653 206.022 36.4C206.022 37.424 206.23 38.32 206.646 39.088C207.062 39.856 207.627 40.448 208.342 40.864C209.057 41.28 209.857 41.488 210.742 41.488ZM224.439 42L221.559 37.216H221.495H219.095V42H218.375V30.768H221.463C222.711 30.768 223.644 31.0613 224.263 31.648C224.892 32.2347 225.207 33.0133 225.207 33.984C225.207 34.848 224.961 35.5627 224.471 36.128C223.991 36.6827 223.287 37.024 222.359 37.152L225.303 42H224.439ZM219.095 36.608H221.495C222.487 36.608 223.228 36.368 223.719 35.888C224.209 35.408 224.455 34.7733 224.455 33.984C224.455 32.2667 223.457 31.408 221.463 31.408H219.095V36.608Z" fill="white"/>
<defs>
<clipPath id="clip0_132_45">
<rect width="131" height="33" fill="white" transform="translate(0 7)"/>
</clipPath>
</defs>
</svg>
